# xmcd CD database file
#
# Track frame offsets:
#	150
#	15097
#	35467
#
# Disc length: 703 seconds
#
# Revision: 14
# Processed by: cddbd v1.5.1PL0 Copyright (c) Steve Scherf et al.
# Submitted via: CDex 1.51
#
DISCID=1202bd03
DTITLE=倉木麻衣 - Love,needing
DYEAR=2005
DGENRE=JPop
TTITLE0=Love,needing
TTITLE1=Moon serenade,Moonlight
TTITLE2=明日へ架ける橋～ballad ver.～
EXTD=YEAR: 2005
EXTT0=
EXTT1=
EXTT2=
PLAYORDER=
